<svg width="32" height="32" viewBox="0 0 32 32" fill="none" xmlns="http://www.w3.org/2000/svg">
<circle cx="16" cy="16" r="16" fill="#0486B0"/>
<path d="M15.9636 23.1989C14.903 23.1989 13.9584 23.0166 13.1298 22.652C12.3059 22.2827 11.6549 21.776 11.1767 21.1321C10.7032 20.4834 10.4593 19.7353 10.4451 18.8878H13.5417C13.5607 19.2429 13.6767 19.5554 13.8897 19.8253C14.1075 20.0904 14.3964 20.2964 14.7562 20.4432C15.1161 20.59 15.5209 20.6634 15.9707 20.6634C16.4395 20.6634 16.8538 20.5805 17.2136 20.4148C17.5734 20.2491 17.8552 20.0194 18.0588 19.7259C18.2624 19.4323 18.3642 19.0937 18.3642 18.7102C18.3642 18.322 18.2553 17.9787 18.0375 17.6804C17.8244 17.3774 17.5166 17.1406 17.1142 16.9702C16.7164 16.7997 16.243 16.7145 15.6937 16.7145H14.3372V14.456H15.6937C16.1577 14.456 16.5673 14.3755 16.9224 14.2145C17.2823 14.0535 17.5616 13.831 17.7605 13.5469C17.9593 13.258 18.0588 12.9219 18.0588 12.5384C18.0588 12.1738 17.9712 11.8542 17.796 11.5795C17.6255 11.3002 17.3841 11.0824 17.0716 10.9261C16.7638 10.7699 16.4039 10.6918 15.992 10.6918C15.5753 10.6918 15.1942 10.7675 14.8485 10.919C14.5029 11.0658 14.2259 11.2765 14.0176 11.5511C13.8092 11.8258 13.698 12.1477 13.6838 12.517H10.7363C10.7505 11.679 10.9896 10.9403 11.4537 10.3011C11.9177 9.66193 12.5427 9.1624 13.3287 8.80256C14.1194 8.43797 15.0119 8.25568 16.0062 8.25568C17.01 8.25568 17.8883 8.43797 18.6412 8.80256C19.394 9.16714 19.9788 9.65956 20.3954 10.2798C20.8168 10.8954 21.0252 11.5866 21.0204 12.3537C21.0252 13.1681 20.7718 13.8475 20.2605 14.392C19.7538 14.9366 19.0933 15.2822 18.2789 15.429V15.5426C19.349 15.6799 20.1634 16.0516 20.7221 16.6577C21.2856 17.259 21.5649 18.0118 21.5602 18.9162C21.5649 19.7448 21.3258 20.4811 20.8429 21.125C20.3646 21.7689 19.7041 22.2756 18.8613 22.6449C18.0185 23.0142 17.0526 23.1989 15.9636 23.1989Z" fill="white"/>
</svg>
