<svg width="32" height="32" viewBox="0 0 32 32" fill="none" xmlns="http://www.w3.org/2000/svg">
<circle cx="16" cy="16" r="16" fill="#0486B0"/>
<path d="M16.0462 23.1989C15.0424 23.1989 14.1475 23.0142 13.3615 22.6449C12.5803 22.2756 11.96 21.7666 11.5007 21.1179C11.0414 20.4692 10.8023 19.7259 10.7834 18.8878H13.7663C13.7995 19.4512 14.0362 19.9081 14.4766 20.2585C14.9169 20.6089 15.4401 20.7841 16.0462 20.7841C16.5291 20.7841 16.9553 20.6776 17.3246 20.4645C17.6986 20.2467 17.9898 19.946 18.1982 19.5625C18.4112 19.1742 18.5178 18.7292 18.5178 18.2273C18.5178 17.7159 18.4089 17.2661 18.1911 16.8778C17.978 16.4896 17.6821 16.1866 17.3033 15.9688C16.9245 15.7509 16.4912 15.6397 16.0036 15.6349C15.5774 15.6349 15.1631 15.7225 14.7607 15.8977C14.3629 16.0729 14.0528 16.312 13.8303 16.6151L11.0959 16.125L11.7848 8.45455H20.6768V10.9688H14.3203L13.9439 14.6122H14.0291C14.2848 14.2524 14.6707 13.9541 15.1868 13.7173C15.7029 13.4806 16.2805 13.3622 16.9197 13.3622C17.7957 13.3622 18.5769 13.5682 19.2635 13.9801C19.95 14.392 20.4922 14.9579 20.8899 15.6776C21.2876 16.3925 21.4841 17.2164 21.4794 18.1491C21.4841 19.1293 21.2569 20.0005 20.7976 20.7628C20.343 21.5204 19.7062 22.117 18.8871 22.5526C18.0727 22.9834 17.1257 23.1989 16.0462 23.1989Z" fill="white"/>
</svg>
