<svg width="32" height="32" viewBox="0 0 32 32" fill="none" xmlns="http://www.w3.org/2000/svg">
<circle cx="16" cy="16" r="16" fill="#0486B0"/>
<path d="M10.8801 23V20.7841L16.0577 15.9901C16.498 15.5639 16.8674 15.1804 17.1657 14.8395C17.4687 14.4986 17.6983 14.1648 17.8546 13.8381C18.0108 13.5066 18.089 13.1491 18.089 12.7656C18.089 12.3395 17.9919 11.9725 17.7978 11.6648C17.6036 11.3523 17.3385 11.1132 17.0023 10.9474C16.6661 10.777 16.285 10.6918 15.8588 10.6918C15.4138 10.6918 15.0255 10.7817 14.6941 10.9616C14.3626 11.1416 14.1069 11.3996 13.927 11.7358C13.7471 12.072 13.6571 12.4721 13.6571 12.9361H10.7381C10.7381 11.9844 10.9535 11.1581 11.3844 10.4574C11.8153 9.75663 12.419 9.21449 13.1955 8.83097C13.972 8.44744 14.8669 8.25568 15.8801 8.25568C16.9218 8.25568 17.8285 8.44034 18.6003 8.80966C19.3768 9.17424 19.9805 9.68087 20.4114 10.3295C20.8423 10.9782 21.0577 11.7216 21.0577 12.5597C21.0577 13.1089 20.9488 13.651 20.731 14.1861C20.5179 14.7211 20.1368 15.3153 19.5875 15.9688C19.0383 16.6174 18.2641 17.3963 17.2651 18.3054L15.1415 20.3864V20.4858H21.2495V23H10.8801Z" fill="white"/>
</svg>
